<svg height="512" viewBox="0 0 64 64" width="512" xmlns="http://www.w3.org/2000/svg"><g id="Fill_Outline" data-name="Fill Outline"><path d="m11 3-8 8v18h40v-26z" fill="#80e1b8"/><path d="m37 15c0-4-3-4-4-7-.7-2.1-4 4.791-4 7a3.972 3.972 0 0 0 1.08 2.717l.92 8.283h4l.92-8.283a3.972 3.972 0 0 0 1.08-2.717z" fill="#3aba80"/><path d="m17 17 1 4h6l1-4v-6h-8z" fill="#3aba80"/><path d="m30 21a14 14 0 0 1 -14-14v-4h-5l-8 8v18h40v-8z" fill="#3aba80"/><path d="m11 11h-8l8-8z" fill="#bbf58b"/><rect fill="#34b2e4" height="36" rx="4" width="50" x="3" y="25"/><path d="m53 29a3.99 3.99 0 0 0 -2.307-3.612l-7.425 12.861-1.268 6.196 4.732-4.2 6.268-10.853z" fill="#2070a1"/><path d="m13 51v-26h-6a4 4 0 0 0 -4 4v28a4 4 0 0 0 4 4h42a4 4 0 0 0 4-4v-6z" fill="#2070a1"/><path d="m7 29h42v28h-42z" fill="#92e5eb"/><path d="m49 29h-.392l-5.34 9.249-1.268 6.196 4.732-4.196 2.268-3.929z" fill="#64d0da"/><path d="m29 51a16 16 0 0 1 -16-16v-6h-6v28h42v-6z" fill="#68cbf2"/><path d="m7 45h4v4h-4z" fill="#f06e7a"/><path d="m7 41h4v4h-4z" fill="#ffc569"/><path d="m7 37h4v4h-4z" fill="#f06e7a"/><path d="m7 33h4v4h-4z" fill="#ffc569"/><path d="m49.5 10.991h4v26h-4z" fill="#80e1b8" transform="matrix(.866 .5 -.5 .866 18.895 -22.536)"/><path d="m42 40.445 1.268-6.196 3.464 2z" fill="#ffc569"/><path d="m59 9a2 2 0 0 1 2 2v2a0 0 0 0 1 0 0h-4a0 0 0 0 1 0 0v-2a2 2 0 0 1 2-2z" fill="#ffc569" transform="matrix(.866 .5 -.5 .866 13.405 -28.026)"/><path d="m58.116 12.8-10.384 17.985a3.986 3.986 0 0 1 -3.607 1.98l-.857 1.484 3.464 2 13-22.517z" fill="#3aba80"/><path d="m59.7 13.714 1.178-2.04a1.994 1.994 0 0 0 -.8-2.348l-1.995 3.455z" fill="#f06e7a"/><path d="m42.5 38.002-.5 2.443 4.732-4.196-1.366-.789z" fill="#f06e7a"/><path d="m32 45-6 12h12z" fill="#64d0da"/><path d="m29 51-3 6h12l-3-6z" fill="#34b2e4"/><circle cx="36" cy="36" fill="#ffc569" r="2"/><path d="m45 51a2 2 0 0 1 -4 0c0-1.1.9-4 2-4s2 2.9 2 4z" fill="#80e1b8"/><path d="m43 53a2 2 0 0 0 2-2h-4a2 2 0 0 0 2 2z" fill="#3aba80"/><path d="m32 51 1.867-2.267-1.867-3.733-1.867 3.733z" fill="#ffc569"/><path d="m38 16h-6l1 9h4z" fill="#ffc569"/><path d="m34.7 20.331-.478-4.331h-2.222l1 9h4l.227-2.043a3 3 0 0 1 -2.527-2.626z" fill="#f06e7a"/><path d="m39 14a4 4 0 0 1 -8 0c0-2.209 3.3-9.1 4-7 1 3 4 3 4 7z" fill="#92e5eb"/><path d="m37 15a4 4 0 0 1 -4-4 12.941 12.941 0 0 1 1.334-4.293c-1.2.72-3.334 5.516-3.334 7.293a3.99 3.99 0 0 0 7.953.471 3.959 3.959 0 0 1 -1.953.529z" fill="#34b2e4"/><path d="m20 20h6v5h-6z" fill="#ffc569"/><path d="m20 20h6l1-4h-8z" fill="#2070a1"/><path d="m19 10h8v6h-8z" fill="#92e5eb"/><path d="m10 20h6v5h-6z" fill="#ffc569"/><path d="m16 20h-6l3-6z" fill="#ffc569"/><path d="m21 11v-1h-2v6h8v-2h-3a3 3 0 0 1 -3-3z" fill="#34b2e4"/><path d="m22 21v-1h-2v5h6v-1h-1a3 3 0 0 1 -3-3z" fill="#f06e7a"/><path d="m13.236 18a1.978 1.978 0 0 1 -1.73-1.011l-1.506 3.011h6l-1-2z" fill="#f06e7a"/><path d="m12 21v-1h-2v5h6v-1h-1a3 3 0 0 1 -3-3z" fill="#f06e7a"/><path d="m23 41-8 16h16z" fill="#bbf58b"/><path d="m19.554 47.893-4.554 9.107h16l-3.026-6.052a15.891 15.891 0 0 1 -8.42-3.055z" fill="#80e1b8"/><path d="m20.5 46 2.5 3 2.667-2.667-2.667-5.333z" fill="#ffc569"/><g fill="#2f2f31"><path d="m3 44a1 1 0 0 0 1-1v-14a3 3 0 0 1 3-3h37.607a1 1 0 0 0 0-2h-6.49l.766-6.889a4.947 4.947 0 0 0 1.117-3.111 6.168 6.168 0 0 0 -2.378-5.028 5.44 5.44 0 0 1 -1.674-2.288 1.392 1.392 0 0 0 -1.556-1.058c-2.006.325-4.392 6.559-4.392 8.374a4.947 4.947 0 0 0 1.117 3.111l.766 6.889h-4.883v-3.878l.97-3.879c.008-.034 0-.068 0-.1a.951.951 0 0 0 .03-.143v-6a1 1 0 0 0 -1-1h-8a1 1 0 0 0 -1 1v6a.951.951 0 0 0 .028.141c.005.034-.006.068 0 .1l.972 3.881v3.878h-2v-4c0-.013-.007-.024-.007-.036a.993.993 0 0 0 -.062-.308c-.009-.022-.014-.044-.023-.066s-.007-.025-.013-.037l-3-6a1.042 1.042 0 0 0 -1.79 0l-3 6c-.006.012-.007.025-.013.037s-.014.044-.023.066a.993.993 0 0 0 -.062.307c0 .013-.007.024-.007.037v4h-2a5.006 5.006 0 0 0 -5 5v14a1 1 0 0 0 1 1zm30.305-25.316a4.7 4.7 0 0 0 3.39 0l-.146 1.316h-3.1zm1.062-10.6a8.2 8.2 0 0 0 1.874 2.334 4.276 4.276 0 0 1 1.759 3.582 3 3 0 0 1 -6 0c0-1.309 1.428-4.584 2.367-5.915zm-.694 13.916h2.654l-.227 2h-2.2zm-13.392-5h5.438l-.5 2h-4.438zm-.281-6h6v4h-2v-1a1 1 0 0 0 -2 0v1h-2zm1 10h4v3h-4zm-8-4.764 1.382 2.764h-2.764zm-2 4.764h4v3h-4z"/><path d="m53 32a1 1 0 0 0 -1 1v24a3 3 0 0 1 -3 3h-42a3 3 0 0 1 -3-3v-10a1 1 0 0 0 -2 0v10a5.006 5.006 0 0 0 5 5h42a5.006 5.006 0 0 0 5-5v-24a1 1 0 0 0 -1-1z"/><path d="m60.5 8.4a3.006 3.006 0 0 0 -4.1 1.1l-1 1.732-13 22.517a.988.988 0 0 0 -.1.306l-.01-.006-1.267 6.2a1 1 0 0 0 1.642.948l4.735-4.197-.01-.006a.986.986 0 0 0 .213-.242l13-22.517 1-1.731a3.005 3.005 0 0 0 -1.103-4.104zm-16.531 27.409.531.306.53.307-1.449 1.285zm14.165-25.309a1 1 0 1 1 1.731 1l-.5.866-.865-.5-.866-.5zm-11.769 24.383-1.731-1 12-20.784.866.5.865.5z"/><path d="m39 36a3 3 0 1 0 -3 3 3 3 0 0 0 3-3zm-3 1a1 1 0 1 1 1-1 1 1 0 0 1 -1 1z"/><circle cx="36" cy="42" r="1"/><circle cx="29" cy="36" r="1"/><circle cx="31" cy="40" r="1"/><path d="m3 23a1 1 0 0 0 1-1v-10h7a1 1 0 0 0 1-1v-7h30v17a1 1 0 0 0 2 0v-18a1 1 0 0 0 -1-1h-32a1 1 0 0 0 -.707.293l-8 8a1 1 0 0 0 -.293.707v11a1 1 0 0 0 1 1zm2.414-13 4.586-4.586v4.586z"/><path d="m42.3 29a1 1 0 0 0 -1-1h-34.3a1 1 0 0 0 -1 1v28a1 1 0 0 0 1 1h42a1 1 0 0 0 1-1v-17.68a1 1 0 1 0 -2 0v16.68h-4v-2.184a3 3 0 0 0 2-2.816c0-1.165-.936-5-3-5s-3 3.835-3 5a3 3 0 0 0 2 2.816v2.184h-3.382l-5.718-11.447a1.042 1.042 0 0 0 -1.79 0l-2.61 5.211-4.6-9.211a1.042 1.042 0 0 0 -1.79 0l-2.494 4.988-5.234 10.459h-6.382v-6h3a1 1 0 0 0 1-1v-16a1 1 0 0 0 -1-1h-3v-2h33.3a1 1 0 0 0 1-1zm.7 19.084a6.2 6.2 0 0 1 1 2.916 1 1 0 0 1 -2 0 6.2 6.2 0 0 1 1-2.916zm-10.319.516-.681.827-.681-.828.681-1.363zm-9.681-5.364 1.45 2.9-1.383 1.383-1.38-1.657zm-2.289 4.579 1.52 1.825a1 1 0 0 0 .724.359h.045a1 1 0 0 0 .707-.293l1.686-1.685 2.712 5.425a1 1 0 0 0 1.79-.894l-.277-.552.721-1.443.889 1.079a1 1 0 0 0 1.544 0l.889-1.079 2.721 5.443h-19.764zm-12.711-5.815h2v2h-2zm2-2h-2v-2h2zm0 8h-2v-2h2zm0-14v2h-2v-2z"/></g></g></svg>