<?xml version="1.0"?>
<svg xmlns="http://www.w3.org/2000/svg" viewBox="-26 0 512 512" width="512px" height="512px" class="hovered-paths"><g><path d="m410 50h-360c-11.050781 0-20 8.949219-20 20v240h400v-240c0-11.050781-8.949219-20-20-20zm0 0" fill="#a9def8" data-original="#A9DEF8"/><path d="m320 200-70 70-90-90-130 130h400zm0 0" fill="#ba7456" data-original="#BA7456" class="hovered-path active-path" style="fill:#4CAC92" data-old_color="#ba7456"/><path d="m280 70h-100c0-13.988281 0-26.011719 0-40 0-11.050781 8.949219-20 20-20h60c11.050781 0 20 8.949219 20 20zm0 0" fill="#3a5361" data-original="#3A5361" class="" data-old_color="#3a5361" style="fill:#C4791C"/><path d="m250 150c11.050781 0 20 8.949219 20 20s-8.949219 20-20 20-20-8.949219-20-20 8.949219-20 20-20zm0 0" fill="#ffd400" data-original="#FFD400"/><path d="m430 310c-16.316406 0-381.46875 0-400 0-11.039062 0-20 8.960938-20 20 0 11.050781 8.949219 20 20 20h84.488281l-76.359375 152h45.5625l76.367188-152h49.941406v152h40v-152h49.941406l76.367188 152h45.570312l-76.367187-152h84.488281c11.039062 0 20-8.960938 20-20 0-11.050781-8.949219-20-20-20zm0 0" fill="#3a5361" data-original="#3A5361" class="" data-old_color="#3a5361" style="fill:#C4791C"/><path d="m90 140c5.519531 0 10-4.480469 10-10s-4.480469-10-10-10-10 4.480469-10 10 4.480469 10 10 10zm0 0" data-original="#000000" class="" style="fill:#000000"/><path d="m30 360h68.277344l-69.082032 137.511719c-3.335937 6.636719 1.496094 14.488281 8.933594 14.488281h45.5625c3.78125 0 7.238282-2.132812 8.9375-5.511719l73.597656-146.488281h33.773438v142c0 5.523438 4.476562 10 10 10h40c5.523438 0 10-4.476562 10-10v-142h33.773438l73.601562 146.488281c1.695312 3.378907 5.152344 5.511719 8.933594 5.511719h45.570312c7.429688 0 12.277344-7.84375 8.9375-14.488281l-69.089844-137.511719h68.273438c16.574219 0 30-13.425781 30-30 0-13.035156-8.359375-24.152344-20-28.28125v-231.71875c0-16.542969-13.457031-30-30-30h-120v-10c0-16.542969-13.457031-30-30-30h-60c-16.542969 0-30 13.457031-30 30v10h-120c-16.542969 0-30 13.457031-30 30v231.703125c-11.390625 4.019531-20 14.964844-20 28.296875 0 16.542969 13.457031 30 30 30zm47.523438 132h-23.179688l66.3125-132h23.1875zm162.476562 0h-20v-132h20zm165.664062 0h-23.1875l-66.320312-132h23.1875zm24.335938-152c-16.265625 0-388.085938 0-400 0-5.515625 0-10-4.484375-10-10 0-5.519531 4.476562-10 9.996094-10h.011718 399.992188c5.515625 0 10 4.484375 10 10 0 5.523438-4.480469 10-10 10zm-135.855469-40-30-30 55.855469-55.859375 85.855469 85.859375zm-51.21875-22.929688h.003907v.003907l22.925781 22.925781h-211.710938l105.855469-105.859375zm-52.925781-247.070312c0-5.515625 4.484375-10 10-10h60c5.515625 0 10 4.484375 10 10v30h-80zm-140 30h120v10c0 5.523438 4.476562 10 10 10h100c5.523438 0 10-4.476562 10-10v-10h120c5.515625 0 10 4.484375 10 10v215.855469l-92.929688-92.925781c-3.90625-3.90625-10.234374-3.90625-14.140624 0l-62.929688 62.925781-82.929688-82.925781c-3.90625-3.90625-10.234374-3.90625-14.140624 0l-112.929688 112.925781v-215.855469c0-5.515625 4.484375-10 10-10zm0 0" data-original="#000000" class="" style="fill:#000000"/><path d="m250 200c16.542969 0 30-13.457031 30-30s-13.457031-30-30-30-30 13.457031-30 30 13.457031 30 30 30zm0-40c5.515625 0 10 4.484375 10 10s-4.484375 10-10 10-10-4.484375-10-10 4.484375-10 10-10zm0 0" data-original="#000000" class="" style="fill:#000000"/><path d="m330 140h40c5.523438 0 10-4.476562 10-10s-4.476562-10-10-10h-40c-5.523438 0-10 4.476562-10 10s4.476562 10 10 10zm0 0" data-original="#000000" class="" style="fill:#000000"/><path d="m130 140h60c5.523438 0 10-4.476562 10-10s-4.476562-10-10-10h-60c-5.523438 0-10 4.476562-10 10s4.476562 10 10 10zm0 0" data-original="#000000" class="" style="fill:#000000"/></g> </svg>
