<svg id="icons" enable-background="new 0 0 64 64" height="512" viewBox="0 0 64 64" width="512" xmlns="http://www.w3.org/2000/svg"><g><g><path d="m39.99 27 2.51 3.94-4.46 7.07h-5.05z" fill="#545c66"/></g><g><path d="m38 13v1h-12v-1-3h2 8 2z" fill="#ffd2a6"/></g><g><path d="m28 1h8v9h-8z" fill="#f7c292"/></g><g><path d="m31.5 25c.82 0 1.5.68 1.5 1.5 0 .83-.68 1.5-1.5 1.5h-5.5c-1.66 0-3-1.34-3-3 0-1.65 1.34-3 3-3 1.65 0 3 1.35 3 3z" fill="#e6e9ed"/></g><g><path d="m9 24c2.21 0 4-1.79 4-4 0-2.2-1.79-4-4-4s-4 1.8-4 4c0 2.21 1.79 4 4 4zm-7-11h24v1h12v-1h24v25.01l-11.98-19-7.52 11.93-2.51-3.94-7 11.01h-23.99-7zm31 13.5c0-.82-.68-1.5-1.5-1.5h-2.5c0-1.65-1.35-3-3-3-1.66 0-3 1.35-3 3 0 1.66 1.34 3 3 3h5.5c.82 0 1.5-.67 1.5-1.5z" fill="#5d9cec"/></g><g><path d="m9 16c2.21 0 4 1.8 4 4 0 2.21-1.79 4-4 4s-4-1.79-4-4c0-2.2 1.79-4 4-4z" fill="#ffce54"/></g><g><path d="m28 59h8v4h-8z" fill="#f7c292"/></g><g><path d="m51.02 59 1 4h-8.01l-1-4z" fill="#f7c292"/></g><g><path d="m50.02 19.01 11.98 19h-23.96l4.46-7.07z" fill="#656d78"/></g><g><path d="m62 42v14h-35c0-7.73 6.26-14 14-14z" fill="#5d9cec"/></g><g><path d="m20.99 59-1 4h-8.01l1-4z" fill="#f7c292"/></g><g><path d="m9 38.01h23.99 5.05 23.96v3.99h-21c-7.74 0-14 6.27-14 14h-25v-17.99z" fill="#a0d468"/></g><g><path d="m63 56v3h-11.98-8.01-7.01-8-7.01-8.01-11.98v-3h1 25 35z" fill="#ffd2a6"/></g></g><g><g><path d="m63 60.004h-62c-.553 0-1-.447-1-1v-3c0-.553.447-1 1-1h62c.553 0 1 .447 1 1v3c0 .553-.447 1-1 1zm-61-2h60v-1h-60z"/></g><g><path d="m38.001 15.001h-12.002c-.553 0-1-.448-1-1v-3.999c0-.552.447-1 1-1h12.002c.553 0 1 .448 1 1v3.999c0 .553-.447 1-1 1zm-11.002-2h10.002v-1.999h-10.002z"/></g><g><path d="m27.998 11.002c-.553 0-1-.448-1-1v-9.002c0-.552.447-1 1-1s1 .448 1 1v9.002c0 .553-.447 1-1 1z"/></g><g><path d="m36.001 2h-8.003c-.553 0-1-.448-1-1s.447-1 1-1h8.003c.553 0 1 .448 1 1s-.447 1-1 1z"/></g><g><path d="m36.001 11.002c-.553 0-1-.448-1-1v-9.002c0-.552.447-1 1-1s1 .448 1 1v9.002c0 .553-.447 1-1 1z"/></g><g><path d="m27.998 64c-.553 0-1-.447-1-1v-3.999c0-.553.447-1 1-1s1 .447 1 1v3.999c0 .553-.447 1-1 1z"/></g><g><path d="m36.001 64c-.553 0-1-.447-1-1v-3.999c0-.553.447-1 1-1s1 .447 1 1v3.999c0 .553-.447 1-1 1z"/></g><g><path d="m44.013 64c-.448 0-.855-.303-.969-.757l-1.001-3.999c-.135-.536.191-1.079.727-1.213.537-.133 1.079.19 1.213.727l1.001 3.999c.135.536-.191 1.079-.727 1.213-.082.02-.163.03-.244.03z"/></g><g><path d="m52.016 64c-.448 0-.855-.303-.969-.757l-1.001-3.999c-.135-.536.191-1.079.727-1.213.535-.133 1.079.19 1.213.727l1.001 3.999c.135.536-.191 1.079-.727 1.213-.082.02-.163.03-.244.03z"/></g><g><path d="m19.987 64c-.081 0-.162-.01-.244-.03-.535-.134-.861-.677-.727-1.213l1.001-3.999c.133-.537.677-.861 1.213-.727.535.134.861.677.727 1.213l-1.001 3.999c-.113.454-.521.757-.969.757z"/></g><g><path d="m11.984 64c-.081 0-.162-.01-.244-.03-.535-.134-.861-.677-.727-1.213l1.001-3.999c.134-.537.675-.861 1.213-.727.535.134.861.677.727 1.213l-1.001 3.999c-.113.454-.521.757-.969.757z"/></g><g><g><path d="m61.999 57.004h-59.998c-.553 0-1-.447-1-1v-43.003c0-.552.447-1 1-1s1 .448 1 1v42.003h57.998v-42.003c0-.552.447-1 1-1s1 .448 1 1v43.003c0 .553-.447 1-1 1z"/></g><g><path d="m26.999 57.004c-.553 0-1-.447-1-1 0-8.271 6.729-15 15-15 .553 0 1 .447 1 1s-.447 1-1 1c-7.168 0-13 5.832-13 13 0 .553-.447 1-1 1z"/></g><g><path d="m61.999 43.004h-21c-.553 0-1-.447-1-1s.447-1 1-1h21c.553 0 1 .447 1 1s-.447 1-1 1z"/></g><g><path d="m47.996 52.005h-9c-.553 0-1-.447-1-1s.447-1 1-1h9c.553 0 1 .447 1 1s-.447 1-1 1z"/></g><g><path d="m54.999 48.005h-6c-.553 0-1-.447-1-1s.447-1 1-1h6c.553 0 1 .447 1 1s-.447 1-1 1z"/></g><g><path d="m61.999 39.006h-59.998c-.553 0-1-.447-1-1s.447-1 1-1h59.998c.553 0 1 .447 1 1s-.447 1-1 1z"/></g><g><path d="m62 39.006c-.332 0-.656-.165-.847-.467l-11.978-18.993c-.295-.467-.155-1.084.313-1.379.466-.293 1.085-.155 1.379.312l11.979 18.994c.295.467.155 1.084-.313 1.379-.166.104-.35.154-.533.154z"/></g><g><path d="m38.04 39.006c-.183 0-.367-.05-.532-.154-.468-.295-.607-.912-.313-1.379l11.979-18.994c.295-.467.915-.605 1.379-.312.468.294.607.912.313 1.379l-11.979 18.993c-.191.302-.515.467-.847.467z"/></g><g><path d="m42.497 31.938c-.33 0-.654-.164-.845-.463l-2.505-3.936c-.297-.466-.159-1.084.307-1.381.466-.296 1.084-.16 1.381.307l2.505 3.936c.297.466.159 1.084-.307 1.381-.167.106-.352.156-.536.156z"/></g><g><path d="m32.99 39.006c-.184 0-.369-.051-.536-.156-.466-.297-.604-.915-.307-1.381l7.001-11.002c.297-.466.914-.603 1.381-.307.466.296.604.915.307 1.38l-7.001 11.003c-.19.299-.515.463-.845.463z"/></g><g><path d="m8.997 52.009c-.553 0-1-.447-1-1v-18.005c0-.552.447-1 1-1s1 .448 1 1v18.005c0 .553-.447 1-1 1z"/></g><g><path d="m11.997 37.006c-.256 0-.512-.098-.707-.293l-3-3.002c-.391-.391-.391-1.024 0-1.415.391-.39 1.023-.39 1.414 0l3 3.002c.391.391.391 1.024 0 1.414-.195.196-.451.294-.707.294z"/></g><g><path d="m5.997 37.006c-.256 0-.512-.098-.707-.293-.391-.39-.391-1.023 0-1.414l3-3.002c.391-.391 1.023-.39 1.414 0 .391.391.391 1.024 0 1.415l-3 3.002c-.195.194-.451.292-.707.292z"/></g><g><path d="m11.997 42.006c-.256 0-.512-.098-.707-.293l-3-3c-.391-.391-.391-1.023 0-1.414s1.023-.391 1.414 0l3 3c.391.391.391 1.023 0 1.414-.195.195-.451.293-.707.293z"/></g><g><path d="m5.997 42.006c-.256 0-.512-.098-.707-.293-.391-.391-.391-1.023 0-1.414l3-3c.391-.391 1.023-.391 1.414 0s.391 1.023 0 1.414l-3 3c-.195.195-.451.293-.707.293z"/></g><g><path d="m11.997 47.004c-.256 0-.512-.098-.707-.293l-3-3c-.391-.391-.391-1.023 0-1.414s1.023-.391 1.414 0l3 3c.391.391.391 1.023 0 1.414-.195.195-.451.293-.707.293z"/></g><g><path d="m5.997 47.004c-.256 0-.512-.098-.707-.293-.391-.391-.391-1.023 0-1.414l3-3c.391-.391 1.023-.391 1.414 0s.391 1.023 0 1.414l-3 3c-.195.195-.451.293-.707.293z"/></g><g><path d="m20.999 52.007c-.553 0-1-.447-1-1v-9.001c0-.553.447-1 1-1s1 .447 1 1v9.001c0 .553-.447 1-1 1z"/></g><g><path d="m22.999 45.006c-.256 0-.512-.098-.707-.293l-2-2c-.391-.391-.391-1.023 0-1.414s1.023-.391 1.414 0l2 2c.391.391.391 1.023 0 1.414-.195.195-.451.293-.707.293z"/></g><g><path d="m18.999 45.006c-.256 0-.512-.098-.707-.293-.391-.391-.391-1.023 0-1.414l2-2c.391-.391 1.023-.391 1.414 0s.391 1.023 0 1.414l-2 2c-.195.195-.451.293-.707.293z"/></g><g><path d="m22.999 49.007c-.256 0-.512-.098-.707-.293l-2-2c-.391-.391-.391-1.023 0-1.414s1.023-.391 1.414 0l2 2c.391.391.391 1.023 0 1.414-.195.195-.451.293-.707.293z"/></g><g><path d="m18.999 49.007c-.256 0-.512-.098-.707-.293-.391-.391-.391-1.023 0-1.414l2-2c.391-.391 1.023-.391 1.414 0s.391 1.023 0 1.414l-2 2c-.195.195-.451.293-.707.293z"/></g><g><path d="m25.996 29.004c-2.206 0-4-1.794-4-4s1.794-4 4-4 4 1.794 4 4c0 .552-.447 1-1 1s-1-.448-1-1c0-1.103-.897-2-2-2s-2 .897-2 2 .897 2 2 2c.553 0 1 .448 1 1s-.447 1-1 1z"/></g><g><path d="m31.496 29.004c-.553 0-1-.448-1-1s.447-1 1-1c.275 0 .5-.224.5-.5s-.225-.5-.5-.5c-.553 0-1-.448-1-1s.447-1 1-1c1.379 0 2.5 1.122 2.5 2.5s-1.121 2.5-2.5 2.5z"/></g><g><path d="m31.496 29.004h-5.5c-.553 0-1-.448-1-1s.447-1 1-1h5.5c.553 0 1 .448 1 1s-.447 1-1 1z"/></g><g><path d="m31.496 26.004h-2.5c-.553 0-1-.448-1-1s.447-1 1-1h2.5c.553 0 1 .448 1 1s-.447 1-1 1z"/></g><g><path d="m9.003 25.005c-2.757 0-5-2.243-5-5s2.243-5 5-5 5 2.243 5 5-2.243 5-5 5zm0-8c-1.654 0-3 1.346-3 3s1.346 3 3 3 3-1.346 3-3-1.346-3-3-3z"/></g><g><path d="m18.001 21.002h-2c-.553 0-1-.448-1-1s.447-1 1-1h2c.553 0 1 .448 1 1s-.447 1-1 1z"/></g><g><path d="m15.064 17.502c-.346 0-.682-.179-.867-.5-.276-.478-.112-1.09.366-1.366l1.731-1c.477-.278 1.089-.113 1.366.366.276.478.112 1.09-.366 1.366l-1.731 1c-.157.091-.329.134-.499.134z"/></g><g><path d="m4.501 28.796c-.17 0-.342-.043-.499-.134-.479-.276-.643-.888-.366-1.366l1-1.732c.276-.479.889-.643 1.366-.366.479.276.643.888.366 1.366l-1 1.732c-.185.321-.521.5-.867.5z"/></g><g><path d="m9.002 30.002c-.553 0-1-.448-1-1v-2c0-.552.447-1 1-1s1 .448 1 1v2c0 .552-.447 1-1 1z"/></g><g><path d="m13.503 28.796c-.346 0-.682-.179-.867-.5l-1-1.732c-.276-.479-.112-1.09.366-1.366.476-.276 1.089-.113 1.366.366l1 1.732c.276.479.112 1.09-.366 1.366-.157.091-.329.134-.499.134z"/></g><g><path d="m16.795 25.501c-.17 0-.342-.043-.499-.134l-1.731-1c-.479-.276-.643-.888-.366-1.366s.889-.643 1.366-.365l1.731 1c.479.276.643.888.366 1.366-.185.32-.521.499-.867.499z"/></g><g><path d="m25.998 14.001h-23.997c-.553 0-1-.448-1-1s.447-1 1-1h23.997c.553 0 1 .448 1 1s-.447 1-1 1z"/></g><g><path d="m61.999 14.001h-23.998c-.553 0-1-.448-1-1s.447-1 1-1h23.998c.553 0 1 .448 1 1s-.447 1-1 1z"/></g></g></g></svg>