<svg id="filled_outline" enable-background="new 0 0 512 512" height="512" viewBox="0 0 512 512" width="512" xmlns="http://www.w3.org/2000/svg"><path d="m320 8 47.9998474 47.9998436-23.9998474 40.0001564 40.0000916-23.9999237 55.9998474 55.9998627-23.999939 40.000061 40.0000305-23.9999695 39.9999695 39.9999695-120 120-176-176z" fill="#efeeef"/><path d="m368 56-18 30-14-14-40 24 24-40-24-24 24-24z" fill="#c4d4de"/><path d="m354 90 30-18 56 56-18 30-14-14-40 24 24-40z" fill="#c4d4de"/><path d="m496 184-120 120-24-24 96-96-22-22 30-18z" fill="#c4d4de"/><path d="m249.373 96.235h45.255v271.529h-45.255z" fill="#aedef8" transform="matrix(.707 -.707 .707 .707 -84.382 260.284)"/><path d="m160 152-19.1884766 19.1884766c-7.9482422 7.9482422-11.1435547 19.4838867-8.4172363 30.3886719l22.4050293 89.619873c3.1464844 12.5864258-1.6176758 25.8269043-12.0622559 33.5229492l-113.1779785 83.3942871c-13.5566406 9.9890137-21.559082 25.8261719-21.559082 42.6652832v.223877c0 29.2692871 23.7272949 52.996582 52.996582 52.996582 16.9645996 0 32.9040527-8.121582 42.8754883-21.8464355l82.5761719-113.6589355c7.3334961-10.09375 19.8652344-15.005127 32.104248-12.581543l84.6867676 16.7680664c10.4741211 2.0739746 21.2924805-1.2128906 28.8427734-8.7631836l19.9179688-19.9179688zm-96 320c-13.2548828 0-24-10.7451172-24-24s10.7451172-24 24-24 24 10.7451172 24 24-10.7451172 24-24 24z" fill="#ffec00"/><path d="m320 312-19.9199219 19.9199219c-7.5498047 7.5500488-18.3701172 10.8400879-28.8398438 8.7600098l-84.6901855-16.7700195c-12.2399902-2.4199219-24.7700195 2.4899902-32.1000977 12.5800781l-70.9099121 97.5900879c2.8100587 3.9299316 4.459961 8.7299804 4.459961 13.9199218 0 13.25-10.75 24-24 24-5.1499023 0-9.9299316-1.6298828-13.8400879-4.4101563-6.5898437 2.8701172-13.7800293 4.4101563-21.1599121 4.4101563-6.2800293 0-12.3100586-1.0900879-17.8999023-3.1000977 7.3398437 20.459961 26.9099121 35.1000977 49.8999023 35.1000977 8.4799805 0 16.6999512-2.0300293 24.0600586-5.7800293 7.3498535-3.7399902 13.8198242-9.1999512 18.8100586-16.0700684l82.579834-113.6599121c7.3300781-10.0900879 19.8601074-15 32.1000977-12.5800781l84.6901855 16.7700195c10.4697266 2.0800781 21.2900391-1.2099609 28.8398438-8.7600098l19.9199218-19.9199218z" fill="#fcc200"/><path d="m427.3137207 83.3137054 72 72c3.0005798 3.0005799 4.6862793 7.0702515 4.6862793 11.3137055v105.3726196c0 8.8365174-7.1634216 15.9999695-15.9999695 15.9999695h-.000061c-8.8365479 0-15.9999695-7.1634521-15.9999695-15.9999695v-8.0000305 72.0000305c0 13.2548218-10.7451477 23.9999695-23.9999695 23.9999695h-.000061c-13.2548218 0-23.9999695-10.7451477-23.9999695-23.9999695v-104.0000458c0-8.8365478-7.1634216-15.9999847-15.9999695-15.9999847h-.000061c-8.8365479 0-15.9999695 7.1634369-15.9999695 15.9999847v8.0000305c0 8.8365479-7.1634216 15.9999848-15.9999695 15.9999848h-.000061c-8.8365479 0-15.9999695-7.1634369-15.9999695-15.9999847v-105.3726044c0-4.243454 1.6856995-8.313118 4.6862793-11.3137054l40-40c6.2484131-6.2483826 16.3790283-6.2483826 22.6274414-.0000001z" fill="#b71e71"/><path d="m504 166.6298828v105.3701172c0 8.8398438-7.1601563 16-16 16-4.4199219 0-8.4199219-1.7900391-11.3198242-4.6799316-2.8901367-2.9001465-4.6801758-6.9001465-4.6801758-11.3200684v64c0 13.25-10.75 24-24 24-6.6201172 0-12.6201172-2.6899414-16.9697266-7.0300293-4.340332-4.3498535-7.0302734-10.3498535-7.0302734-16.9699707 2.5.8901367 5.2001953 1.3701172 8 1.3701172 13.25 0 24-10.7402344 24-24v-64c0 4.4199219 1.7900391 8.4199219 4.6801758 11.3098145 2.8999023 2.9001465 6.8999023 4.6901855 11.3198242 4.6901855 8.8398438 0 16-7.1601563 16-16v-105.3701172l11.3100586 11.3100586c3 3 4.6899414 7.0698242 4.6899414 11.3198242z" fill="#931d5b"/><path d="m448.0000305 440h-.000061c-13.2548218 0-23.9999695-10.7451477-23.9999695-23.9999695v-.000061c0-13.2548218 10.7451477-23.9999695 23.9999695-23.9999695h.000061c13.2548218 0 23.9999695 10.7451477 23.9999695 23.9999695v.000061c0 13.2548218-10.7451477 23.9999695-23.9999695 23.9999695z" fill="#f98800"/><path d="m448.0000305 440h-.000061c-13.2548218 0-23.9999695-10.7451477-23.9999695-23.9999695v-.000061c0-13.2548218 10.7451477-23.9999695 23.9999695-23.9999695h.000061c13.2548218 0 23.9999695 10.7451477 23.9999695 23.9999695v.000061c0 13.2548218-10.7451477 23.9999695-23.9999695 23.9999695z" fill="#b71e71"/><path d="m472 416c0 6.6201172-2.6899414 12.6201172-7.0302734 16.9699707-4.3496094 4.3400879-10.3496094 7.0300293-16.9697266 7.0300293-10.8198242 0-19.9799805-7.1699219-22.9697266-17.0300293 2.1997071.670166 4.5498047 1.0300293 6.9697266 1.0300293 6.6201172 0 12.6201172-2.6899414 16.9697266-7.0300293 4.340332-4.3498535 7.0302734-10.3498535 7.0302734-16.9699707 0-2.4199219-.3598633-4.7700195-1.0302734-6.9699707 3.8203125 1.1599121 7.2402344 3.25 10 6 4.340332 4.3498535 7.0302734 10.3498535 7.0302734 16.9699707z" fill="#931d5b"/><path d="m329.373 289.373h45.255v45.255h-45.255z" fill="#4cabcc" transform="matrix(.707 -.707 .707 .707 -117.519 340.284)"/><g fill="#fff"><circle cx="440" cy="408" r="8"/><circle cx="448" cy="328" r="8"/><circle cx="384" cy="192" r="8"/><circle cx="88" cy="392" r="8"/><circle cx="176" cy="168" r="8"/><path d="m448 304c-4.4182739 0-8-3.5817261-8-8v-16c0-4.4182739 3.5817261-8 8-8 4.4182739 0 8 3.5817261 8 8v16c0 4.4182739-3.5817261 8-8 8z"/><circle cx="480" cy="248" r="8"/><path d="m480 224c-4.4182739 0-8-3.5817108-8-7.9999847v-40.0000305c0-4.418274 3.5817261-7.9999848 8-7.9999848 4.4182739 0 8 3.5817108 8 7.9999847v40.0000305c0 4.418274-3.5817261 7.9999848-8 7.9999848z"/><path d="m384 168c-4.4179688 0-8-3.5820313-8-8v-24c0-2.1220703.8427734-4.15625 2.3427734-5.6572266l24-24c3.125-3.1230469 8.1894531-3.1230469 11.3144531 0 3.1240234 3.125 3.1240234 8.1894531 0 11.3144531l-21.6572265 21.6562501v20.6865234c0 4.4179688-3.5820312 8-8 8z"/><path d="m112.0048828 384c-2.3466797 0-4.671875-1.0273438-6.2519531-3.0029297-2.7597656-3.4492188-2.2001953-8.484375 1.25-11.2441406l40-32c3.4492188-2.7587891 8.484375-2.2001953 11.2441406 1.25 2.7597656 3.4492188 2.2001953 8.484375-1.25 11.2441406l-40 32c-1.4746094 1.1796875-3.2392578 1.7529297-4.9921875 1.7529297z"/><path d="m167.9960938 256.0019531c-3.4814453 0-6.6845703-2.2900391-7.6884766-5.8046875l-12.8916016-45.1220703c-2.7148438-9.5-.0615234-19.7441406 6.9267578-26.7324219 3.125-3.1230469 8.1894531-3.1230469 11.3144531 0 3.1240234 3.125 3.1240234 8.1894531 0 11.3144531-2.8818359 2.8808594-3.9765625 7.1044922-2.8564453 11.0224609l12.8916016 45.1230469c1.2138672 4.2480469-1.2460938 8.6757813-5.4951172 9.8896484-.734375.2099611-1.4736328.3095704-2.2011718.3095704z"/></g><path d="m64 416c-17.6445313 0-32 14.3554688-32 32s14.3554688 32 32 32 32-14.3554688 32-32-14.3554687-32-32-32zm0 48c-8.8222656 0-16-7.1777344-16-16s7.1777344-16 16-16 16 7.1777344 16 16-7.1777344 16-16 16z"/><path d="m504.9677734 149.6533203-72-72c-9.0307617-9.0288086-23.5068359-9.3168945-32.918457-.9187012l-10.3920898-10.3918457c-2.5957031-2.5947266-6.6240234-3.0888672-9.7734375-1.203125l-12.5595703 7.5361328 7.5361328-12.5595703c1.8886719-3.1484375 1.3925781-7.1777344-1.203125-9.7734375l-48-48c-3.125-3.1230469-8.1894531-3.1230469-11.3144531 0l-114.3427735 114.3427735-2.3427734-2.3427734c-3.125-3.1230469-8.1894531-3.1230469-11.3144531 0l-32 32-19.1884766 19.1884765c-9.8779297 9.8789063-13.9091797 24.4335938-10.5205078 37.9863281l22.4042969 89.6201172c2.3701172 9.4775391-1.1806641 19.3466797-9.0458984 25.1416016l-113.1796876 83.3945312c-15.5371094 11.4492188-24.8125 29.8066407-24.8125 49.1054688v.2246094c0 33.633789 27.3632813 60.9960937 60.9970703 60.9960937 19.4599609 0 37.9082031-9.3994141 49.3476563-25.1445313l82.5761719-113.6582031c5.4804688-7.5449219 14.9345703-11.2490234 24.078125-9.4365234l84.6865234 16.7685547c13.1181641 2.5947266 26.5966797-1.4990234 36.0537109-10.9541016l19.9179688-19.9179688 32-32c3.1240234-3.125 3.1240234-8.1894531 0-11.3144531l-2.3427735-2.3427734 28.6855469-28.6855469v60.6855469c0 8.5341797 3.3271484 16.5673828 9.3789063 22.6318359 6.0537109 6.0410157 14.086914 9.3681641 22.6210937 9.3681641 17.6445313 0 32-14.3554688 32-32v-41.3583984c2.5371094.8935547 5.2333984 1.3583984 8 1.3583984 13.2333984 0 24-10.7666016 24-24v-105.3701172c0-6.4121094-2.4970703-12.4414062-7.0322266-16.9765625zm-178.5429687 208.6074219c-5.6728516 5.6738281-13.7607422 8.1308594-21.6318359 6.5732422l-84.6865234-16.7685547c-15.2421875-3.0166016-30.9960938 3.1552734-40.1308594 15.7275391l-82.5751954 113.6582031c-8.4394531 11.6142578-22.0478515 18.5488281-36.4042968 18.5488281-24.8105469 0-44.9960938-20.1855469-44.9960938-44.9960937v-.2246094c0-14.2363281 6.8427734-27.7783203 18.3037109-36.2246094l113.1787109-83.3945313c13.109375-9.6591797 19.0273438-26.1074219 15.0771484-41.9033203l-22.4042969-89.6201172c-2.0322266-8.1318359.3857422-16.8642578 6.3134766-22.7910156l13.5312501-13.5322265 180.6865234 180.6865234zm25.5751953-25.5751953-180.6855469-180.6855469 20.6855469-20.6865234 180.6865234 180.6865234zm24-40-164.6855469-164.6855469 108.6855469-108.6865234 37.9267578 37.9267578-20.7871094 34.6435547c-1.8886719 3.1484375-1.3925781 7.1777344 1.203125 9.7734375 2.5966797 2.5947266 6.6269531 3.0908203 9.7734375 1.203125l34.6435547-20.7871094 5.9257813 5.9265137-29.6533203 29.6535645c-4.5351563 4.5351562-7.0322266 10.564453-7.0322266 16.9765624v105.3701172c0 6.4023438 2.4902344 12.4277344 7.0332031 16.9873047 4.5390625 4.5224609 10.5644532 7.0126953 16.9667969 7.0126953 13.2333984 0 24-10.7666016 24-24v-8c0-2.1396484.8339844-4.1552734 2.3261719-5.6533203 1.5185547-1.5126953 3.5341797-2.3466797 5.6738281-2.3466797 4.4111328 0 8 3.5888672 8 8v20.6855469zm120-20.6855469c0 4.4111328-3.5888672 8-8 8-2.1396484 0-4.1552734-.8339844-5.6533203-2.3261719-1.5126953-1.5185547-2.3466797-3.5341797-2.3466797-5.6738281 0-4.4179688-3.5820313-8-8-8s-8 3.5820313-8 8v64c0 8.8222656-7.1777344 16-16 16-4.2666016 0-8.2861328-1.6669922-11.3076172-4.6816406-3.0253906-3.0322266-4.6923828-7.0517578-4.6923828-11.3183594v-104c0-13.2333984-10.7666016-24-24-24-6.4023438 0-12.4277344 2.4902344-16.9873047 7.0332031-4.5224609 4.5390625-7.0126953 10.5644532-7.0126953 16.9667969v8c0 4.4111328-3.5888672 8-8 8-2.1396484 0-4.1552734-.8339844-5.6533203-2.3261719-1.5126953-1.5185547-2.3466797-3.5341797-2.3466797-5.6738281v-105.3701172c0-2.1386719.8330078-4.1494141 2.3466797-5.6621094l40-40c3.1171875-3.1191406 8.1894531-3.1191406 11.3066406 0l72 72c1.5136719 1.5126954 2.3466797 3.5234375 2.3466797 5.6621094z"/><path d="m448 384c-17.6445313 0-32 14.3554688-32 32s14.3554688 32 32 32 32-14.3554688 32-32-14.3554687-32-32-32zm0 48c-8.8222656 0-16-7.1777344-16-16s7.1777344-16 16-16 16 7.1777344 16 16-7.1777344 16-16 16z"/></svg>