<svg id="Capa_1" enable-background="new 0 0 510.485 510.485" height="512" viewBox="0 0 510.485 510.485" width="512" xmlns="http://www.w3.org/2000/svg"><g><g><path d="m158.196 268.115c0 9.794-7.94 17.734-17.734 17.734-9.794 0-17.734-7.94-17.734-17.734v-27.268c0-9.081-7.362-16.443-16.443-16.443-9.081 0-16.443 7.362-16.443 16.443v94.074c0 13.525-10.964 24.489-24.489 24.489-13.525 0-24.489-10.964-24.489-24.489v-272.428h117.333v205.622z" fill="#ee6161"/><g><g><g><path d="m227.31 341.827v-71.99c0-5.071 4.126-9.197 9.197-9.197h154.851c9.158 0 17.866-3.466 24.517-9.758l78.144-73.907c5.698-5.389 8.966-12.978 8.966-20.821v-65.004c0-15.802-12.855-28.658-28.657-28.658h-63.484-113.146v34h113.146 58.141v57.361l-76.474 72.328c-.313.296-.723.459-1.154.459h-154.85c-23.819 0-43.197 19.378-43.197 43.197v71.99 77.906h35.903z" fill="#efedef"/></g></g></g><path d="m244.189 418.702v-64.21h-56.46l.863 59.519-15.879 27.127s-1.856 44.54-2.459 59.604h86.044c1.719 0 3.112-1.394 3.112-3.112v-42.198c-.001-13.78-5.471-26.99-15.221-36.73z" fill="#dc8758"/><path d="m244.189 354.492h-66.302-4.478v64.21c-4.87 4.87-8.67 10.61-11.26 16.85-2.58 6.24-3.95 12.99-3.95 19.88v42.198c0 1.719 1.393 3.112 3.112 3.112h25.234v-35.977c0-6.89 1.37-13.64 3.95-19.88 1.852-4.462 4.322-8.668 7.36-12.483 2.53-3.178 3.9-7.124 3.9-11.186v-57.392h42.433 4.478v-9.333h-4.477z" fill="#d77f4a"/><g id="XMLID_303_"><g><path d="m397.831 116.065c7.187 0 13.012-5.826 13.012-13.012v-47.12c0-7.187-5.826-13.012-13.012-13.012h-377.319c-7.187 0-13.012 5.826-13.012 13.012v47.119c0 7.187 5.826 13.012 13.012 13.012h377.319z" fill="#d7d0d6"/></g><path d="m353.669 9.742h-262.384l-34.83 23.125v100.691l291.692 3.134 28.591-15.748v-88.132c.001-12.74-10.329-23.07-23.069-23.07z" fill="#fde6bf"/><path d="m125.048 116.605c-12.74 0-23.07-10.32-23.07-23.07v-83.793h-38.049c-12.74 0-23.07 10.33-23.07 23.07v93.36c0 12.75 10.33 23.07 23.07 23.07h289.74c12.74 0 23.07-10.32 23.07-23.07v-9.567z" fill="#fdd79b"/></g><path d="m254.33 384.286h-91.056c-8.338 0-15.098-6.759-15.098-15.098v-12.264c0-8.338 6.759-15.098 15.098-15.098h91.056c8.338 0 15.098 6.759 15.098 15.098v12.264c0 8.339-6.76 15.098-15.098 15.098z" fill="#dc8758"/><path d="m189.658 371.681c-8.338 0-15.098-6.76-15.098-15.098v-12.264c0-.851.087-1.68.223-2.492h-11.509c-8.338 0-15.098 6.76-15.098 15.098v12.264c0 8.338 6.759 15.098 15.098 15.098h91.056c7.487 0 13.685-5.456 14.875-12.605h-79.547z" fill="#d77f4a"/><path d="m255.969 9.741h-40.242v72.38c0 11.112 9.008 20.121 20.121 20.121 11.112 0 20.121-9.008 20.121-20.121z" fill="#ee6161"/></g><g><path d="m474.328 54.993h-56.032c-.497-10.873-9.471-19.572-20.465-19.572h-13.59v-2.611c0-16.855-13.713-30.569-30.569-30.569h-289.74c-16.855 0-30.568 13.713-30.568 30.569v2.611h-12.852c-11.31 0-20.512 9.202-20.512 20.512v47.12c0 11.311 9.202 20.512 20.512 20.512h12.851v2.611 84.708c0 4.142 3.358 7.5 7.5 7.5s7.5-3.358 7.5-7.5v-58.415c4.563 2.712 9.886 4.276 15.568 4.276h86.764v111.37c0 5.643-4.591 10.234-10.234 10.234s-10.234-4.591-10.234-10.234v-27.268c0-13.202-10.741-23.943-23.943-23.943-13.203 0-23.943 10.741-23.943 23.943v94.074c0 9.368-7.621 16.989-16.989 16.989s-16.989-7.621-16.989-16.989v-92.075c0-4.142-3.358-7.5-7.5-7.5s-7.5 3.358-7.5 7.5v92.075c0 17.639 14.35 31.989 31.989 31.989s31.989-14.35 31.989-31.989v-94.074c0-4.931 4.012-8.943 8.943-8.943s8.943 4.012 8.943 8.943v27.268c0 13.914 11.32 25.234 25.234 25.234s25.234-11.32 25.234-25.234v-111.37h114.507c4.142 0 7.5-3.358 7.5-7.5s-3.358-7.5-7.5-7.5h-216.27c-8.584 0-15.568-6.984-15.568-15.569v-93.366c0-8.584 6.984-15.569 15.568-15.569h144.295v64.88c0 15.23 12.391 27.621 27.621 27.621s27.621-12.391 27.621-27.621v-64.88h90.204c8.584 0 15.569 6.984 15.569 15.569v93.367c0 8.585-6.984 15.569-15.569 15.569h-41.507c-4.142 0-7.5 3.358-7.5 7.5s3.358 7.5 7.5 7.5h41.507c16.855 0 30.569-13.713 30.569-30.569v-2.611h13.59c10.993 0 19.968-8.699 20.465-19.572h43.189v46.632l-72.444 68.516h-152.535c-27.955 0-50.697 22.743-50.697 50.697v64.49h-22.536c-12.46 0-22.598 10.137-22.598 22.598v12.264c0 12.46 10.138 22.598 22.598 22.598h2.637v23.925c-9.835 10.926-15.216 24.911-15.216 39.723v45.311c0 4.142 3.358 7.5 7.5 7.5s7.5-3.358 7.5-7.5v-45.311c0-11.873 4.624-23.036 13.019-31.431 1.407-1.406 2.197-3.314 2.197-5.303v-26.913h55.781v26.913c0 1.989.79 3.896 2.197 5.303 8.396 8.396 13.019 19.559 13.019 31.431v45.311c0 4.142 3.358 7.5 7.5 7.5s7.5-3.358 7.5-7.5v-45.311c0-14.811-5.38-28.796-15.216-39.723v-23.925h2.637c12.46 0 22.598-10.137 22.598-22.598v-12.264c0-12.46-10.137-22.598-22.598-22.598h-19.52v-64.49c0-.936.761-1.697 1.697-1.697h44.146 110.705c11.083 0 21.621-4.194 29.67-11.809l26.949-25.487c3.01-2.846 3.142-7.593.295-10.603-2.845-3.009-7.592-3.141-10.602-.296l-26.95 25.488c-5.253 4.969-12.13 7.706-19.363 7.706h-110.703-44.146c-9.207 0-16.697 7.49-16.697 16.697v64.49h-19v-64.49c0-19.683 16.014-35.697 35.697-35.697h154.851c2.355 0 4.595-.891 6.307-2.51l76.474-72.328c1.498-1.417 2.347-3.387 2.347-5.449v-57.361c0-4.142-3.358-7.5-7.5-7.5h-50.642v-19h55.984c11.666 0 21.157 9.491 21.157 21.158v65.004c0 5.791-2.413 11.393-6.62 15.372l-27.97 26.454c-3.01 2.846-3.142 7.593-.295 10.602 1.475 1.56 3.46 2.347 5.45 2.347 1.849 0 3.703-.68 5.152-2.051l27.97-26.453c7.189-6.799 11.313-16.374 11.313-26.27v-65.006c0-19.937-16.22-36.157-36.157-36.157zm-453.816 53.572c-3.04 0-5.512-2.473-5.512-5.512v-47.12c0-3.04 2.473-5.512 5.512-5.512h12.851v58.144zm227.957-26.444c0 6.959-5.662 12.621-12.621 12.621s-12.621-5.662-12.621-12.621v-64.88h25.242zm13.459 274.804v12.264c0 4.189-3.408 7.598-7.598 7.598h-91.056c-4.189 0-7.598-3.408-7.598-7.598v-12.264c0-4.189 3.409-7.598 7.598-7.598h91.056c4.19 0 7.598 3.408 7.598 7.598zm141.416-253.872c0 3.04-2.473 5.512-5.512 5.512h-13.59v-58.144h13.59c3.04 0 5.512 2.473 5.512 5.512z"/><path d="m193.31 461.249c-4.142 0-7.5 3.358-7.5 7.5v31.996c0 4.142 3.358 7.5 7.5 7.5s7.5-3.358 7.5-7.5v-31.996c0-4.143-3.358-7.5-7.5-7.5z"/></g></g></svg>