<svg id="Layer_5" enable-background="new 0 0 64 64" height="512" viewBox="0 0 64 64" width="512" xmlns="http://www.w3.org/2000/svg"><g><g><g><path d="m27.5 34-.52 6.24c-10.85 1.06-18.98 5.47-18.98 10.76 0 .35.04.68.13 1h-.29c-1.04 0-1.91-.8-1.99-1.83l-1.35-16.17z" fill="#ff826e"/></g><g><path d="m28 28-.5 6h-23l-.5-6z" fill="#ff826e"/></g><g><path d="m62 17c0 3.82-1.63 7.45-4.48 10l-14.54 12.98-3.96-3.96 12.98-14.54c1.28-1.42 2.82-2.54 4.52-3.31 1.71-.76 3.57-1.17 5.48-1.17z" fill="#969faa"/></g><g><path d="m8.13 52c-.09-.32-.13-.65-.13-1 0-5.29 8.13-9.7 18.98-10.76 1.62-.16 3.3-.24 5.02-.24 1.14 0 2.27.04 3.37.11l-3.59 4.02c-.32-.09-.67-.13-1.02-.13-1.59 0-3.03.64-4.07 1.69-1.05 1.04-1.69 2.48-1.69 4.07v4.24l1.55-1.03c.26-.17.53-.32.81-.45-.23.46-.36.96-.36 1.48 0 2.21 2.24 4 5 4s5-1.79 5-4c0-1.53-1.08-2.84-2.65-3.51.42-.67.65-1.45.65-2.25 0-.35-.04-.7-.13-1.02l7-6.25c8.33 1.73 14.13 5.57 14.13 10.03 0 6.08-10.75 11-24 11h-5.98c-1.79 0-3.36-1.18-3.85-2.9l-.34-1.2c-.49-1.72-2.06-2.9-3.85-2.9h-5.98c-1.86 0-3.43-1.27-3.87-3z" fill="#e6e9ed"/></g><g><ellipse cx="47" cy="51" fill="#ff826e" rx="5" ry="4"/></g><g><path d="m42.98 39.98-1.11.99-7 6.25c-.19-.76-.58-1.44-1.11-1.98-.54-.53-1.22-.92-1.98-1.11l3.59-4.02 3.65-4.09z" fill="#aab2bd"/></g><g><path d="m34.35 50.49c1.57.67 2.65 1.98 2.65 3.51 0 2.21-2.24 4-5 4s-5-1.79-5-4c0-.52.13-1.02.36-1.48.75-.34 1.56-.52 2.38-.52h2.19c.68 0 1.34-.27 1.83-.76.23-.23.43-.48.59-.75z" fill="#fcd770"/></g><g><path d="m34.87 47.22c.09.32.13.67.13 1.02 0 .8-.23 1.58-.65 2.25-.16.27-.36.52-.59.75-.49.49-1.15.76-1.83.76h-2.19c-.82 0-1.63.18-2.38.52-.28.13-.55.28-.81.45l-1.55 1.03v-4.24c0-1.59.64-3.03 1.69-4.07 1.04-1.05 2.48-1.69 4.07-1.69.35 0 .7.04 1.02.13.76.19 1.44.58 1.98 1.11.53.54.92 1.22 1.11 1.98z" fill="#ffeaa7"/></g><g><path d="m30 25v2c0 .55-.45 1-1 1h-1-24-1c-.55 0-1-.45-1-1v-2c0-.55.45-1 1-1h4 6 7 4 5c.55 0 1 .45 1 1z" fill="#b27946"/></g><g><path d="m26 4-2 8h-4l-2-8s2-2 4-2 4 2 4 2z" fill="#dfb28b"/></g><g><path d="m20 12h4v12h-4z" fill="#aab2bd"/></g><g><path d="m7.78 11.51c-.37-.2-.72-.45-1.02-.75-.49-.49-.76-1.15-.76-1.83v-2.19c0-1.13-.34-2.24-.97-3.19l-1.03-1.55h4.24c1.59 0 3.03.64 4.07 1.69 1.05 1.04 1.69 2.48 1.69 4.07 0 1.17-.48 2.23-1.24 3-.17.17-.36.33-.56.46-.69.49-1.53.78-2.44.78-.7 0-1.38-.17-1.98-.49z" fill="#dfb28b"/></g><g><path d="m12.2 11.22.8 12.78h-6l.78-12.49c.6.32 1.28.49 1.98.49.91 0 1.75-.29 2.44-.78z" fill="#969faa"/></g></g><g><path d="m47 56c3.309 0 6-2.243 6-5s-2.691-5-6-5-6 2.243-6 5 2.691 5 6 5zm0-8c2.206 0 4 1.346 4 3s-1.794 3-4 3-4-1.346-4-3 1.794-3 4-3z"/><path d="m14.953 46.612.959 1.755c.523-.287 1.1-.563 1.713-.824l-.781-1.841c-.674.286-1.31.592-1.891.91z"/><path d="m11.515 49.441 1.678 1.088c.162-.25.496-.656 1.165-1.167l-1.215-1.589c-.72.55-1.268 1.112-1.628 1.668z"/><path d="m18.785 44.967.637 1.896c.585-.196 1.204-.383 1.855-.557l-.516-1.933c-.694.186-1.352.384-1.976.594z"/><path d="m62 16c-4.099 0-8.014 1.753-10.742 4.81l-16.327 18.286c-.986-.055-1.972-.096-2.931-.096-1.339 0-2.649.049-3.926.142l.846-10.142h.08c1.103 0 2-.897 2-2v-2c0-1.103-.897-2-2-2h-4v-10.877l2.107-8.43-.4-.4c-.234-.235-2.36-2.293-4.707-2.293s-4.473 2.058-4.707 2.293l-.4.4 2.107 8.43v10.877h-5.061l-.709-11.346c1.078-.96 1.77-2.343 1.77-3.897 0-3.726-3.031-6.757-6.758-6.757h-6.11l2.069 3.104c.523.785.799 1.697.799 2.639v2.186c0 .958.373 1.859 1.05 2.535.215.216.452.4.696.573l-.685 10.963h-3.061c-1.103 0-2 .897-2 2v2c0 1.103.897 2 2 2h.08l1.77 21.249c.116 1.394 1.201 2.505 2.55 2.709.764 1.786 2.538 3.042 4.6 3.042h5.982c1.332 0 2.519.895 2.885 2.176l.342 1.198c.611 2.135 2.588 3.626 4.809 3.626h5.982c14.019 0 25-5.271 25-12 0-4.535-4.943-8.494-13.028-10.563l14.218-12.695c3.057-2.729 4.81-6.644 4.81-10.742v-1zm-26 38c0 1.654-1.794 3-4 3s-4-1.346-4-3c0-.235.056-.472.136-.709.513-.184 1.053-.291 1.607-.291h2.186c.958 0 1.858-.373 2.537-1.051.056-.056.096-.123.149-.181.865.566 1.385 1.376 1.385 2.232zm-2-5.757c0 .866-.337 1.68-.949 2.292-.295.296-.704.465-1.122.465h-2.186c-1.337 0-2.631.391-3.743 1.131v-2.374c0-2.623 2.135-4.757 4.758-4.757 1.788 0 3.242 1.455 3.242 3.243zm-.556-4.478 5.616-6.29 2.466 2.466-6.29 5.616c-.444-.737-1.056-1.349-1.792-1.792zm-11.444-40.765c1.028 0 2.205.783 2.884 1.342l-1.664 6.658h-2.466l-1.638-6.658c.679-.559 1.856-1.342 2.884-1.342zm-1 10h2.027l-.025 10h-2.002zm-15.132-10h2.374c2.623 0 4.758 2.134 4.758 4.757 0 1.788-1.454 3.243-3.242 3.243-.867 0-1.681-.337-2.293-.95-.3-.3-.465-.697-.465-1.121v-2.186c0-1.336-.392-2.63-1.132-3.743zm2.829 9.89c.345.071.7.11 1.061.11.538 0 1.048-.105 1.537-.257l.641 10.257h-3.872zm-5.697 12.11h26l.001 2h-26.001zm23.914 4-.333 4h-21.161l-.333-4zm-19.891 21.547c-.093-.137-.165-.289-.179-.464l-1.258-15.083h20.827l-.361 4.331c-10.761 1.217-18.62 5.683-19.029 11.216zm47.977.453c0 5.42-10.532 10-23 10h-5.982c-1.332 0-2.519-.895-2.885-2.176l-.342-1.198c-.611-2.135-2.588-3.626-4.809-3.626h-5.982c-1.654 0-3-1.346-3-3 0-5.42 10.532-10 23-10 .391 0 .798.03 1.196.039l-1.808 2.025c-.209-.026-.414-.064-.63-.064-3.727 0-6.758 3.031-6.758 6.757v6.111l2.032-1.355c.309 2.517 2.868 4.487 5.968 4.487 3.309 0 6-2.243 6-5 0-1.564-.881-2.999-2.341-3.934.215-.577.341-1.189.341-1.823 0-.216-.038-.421-.064-.631l6.215-5.549c7.703 1.698 12.849 5.256 12.849 8.937zm1.858-24.75-13.838 12.356-2.626-2.626 12.356-13.838c2.116-2.371 5.063-3.832 8.206-4.098-.267 3.143-1.727 6.089-4.098 8.206z"/></g></g></svg>