<svg viewBox="-16 0 512 512" xmlns="http://www.w3.org/2000/svg"><path d="m310.25 50h-60l-52.851562 452h112.851562c11.050781 0 20-8.949219 20-20v-412c0-11.050781-8.949219-20-20-20zm0 0" fill="#fff"/><path d="m190.25 50h-120v452h127.148438c26.152343 0 49.992187-18.820312 52.589843-44.839844zm0 0" fill="#ff6c6c"/><path d="m470.25 120v40c-9.679688 0-70.257812 0-80 0v-40zm0 0" fill="#fff"/><path d="m470.25 90v30h-80v-30c0-22.089844 17.910156-40 40-40s40 17.910156 40 40zm0 0" fill="#ff6c6c"/><path d="m470.25 422-40 80-40-80zm0 0" fill="#f6d465"/><path d="m390.25 160v262h80v-262c-9.679688 0-70.257812 0-80 0zm0 0" fill="#6eba7b"/><path d="m250.25 452c0-27.609375-22.390625-50-50-50h-10c0-11.847656 0-339.9375 0-362 0-16.570312 13.429688-30 30-30 16.558594 0 30 13.441406 30 30zm0 0" fill="#f6d465"/><path d="m70.25 50v452h-40c-11.050781 0-20-8.949219-20-20v-412c0-11.050781 8.949219-20 20-20zm0 0" fill="#3a5361"/><path d="m110 180c-5.519531 0-10 4.480469-10 10s4.480469 10 10 10 10-4.480469 10-10-4.480469-10-10-10zm0 0"/><path d="m310 40h-50c0-22.097656-17.898438-40-40-40-22.054688 0-40 17.945312-40 40h-150c-16.542969 0-30 13.457031-30 30v412c0 16.542969 13.457031 30 30 30h280c16.542969 0 30-13.457031 30-30v-412c0-16.542969-13.457031-30-30-30zm-110 0c0-11.027344 8.972656-20 20-20 11.046875 0 20 8.953125 20 20v367.316406c-10.621094-9.519531-24.648438-15.316406-40-15.316406zm-10 372h10c22.054688 0 40 17.945312 40 40 0 23.195312-20.382812 40-42.851562 40-6.652344 0-110.511719 0-117.148438 0v-432h100v342c0 5.523438 4.476562 10 10 10zm-170 70v-412c0-5.515625 4.484375-10 10-10h30v432h-30c-5.515625 0-10-4.484375-10-10zm300 0c0 5.515625-4.484375 10-10 10h-66.097656c10.207031-10.777344 16.097656-24.546875 16.097656-40v-392h50c5.515625 0 10 4.484375 10 10zm0 0"/><path d="m110 80c-5.523438 0-10 4.476562-10 10v60c0 5.523438 4.476562 10 10 10s10-4.476562 10-10v-60c0-5.523438-4.476562-10-10-10zm0 0"/><path d="m430 40c-27.570312 0-50 22.429688-50 50v332c0 1.523438.355469 3.070312 1.054688 4.472656l40 80c1.695312 3.386719 5.15625 5.527344 8.945312 5.527344s7.25-2.140625 8.945312-5.527344l40-80c.652344-1.308594 1.054688-2.835937 1.054688-4.472656v-332c0-27.570312-22.429688-50-50-50zm-30 372v-242h20v242zm0-262v-20h60v20zm40 20h20v242h-20zm-10-110c16.542969 0 30 13.457031 30 30v20h-60v-20c0-16.542969 13.457031-30 30-30zm0 419.640625-23.820312-47.640625h47.640624zm0 0"/></svg>