<?xml version="1.0" encoding="iso-8859-1"?>
<!-- Generator: Adobe Illustrator 19.0.0, SVG Export Plug-In . SVG Version: 6.00 Build 0)  -->
<svg version="1.1" id="Capa_1" xmlns="http://www.w3.org/2000/svg" xmlns:xlink="http://www.w3.org/1999/xlink" x="0px" y="0px"
	 viewBox="0 0 512 512" style="enable-background:new 0 0 512 512;" xml:space="preserve">
<path style="fill:#FFF5CC;" d="M329.052,504.5H80.83c-21.609,0-39.126-17.518-39.126-39.126V46.626
	C41.704,25.018,59.221,7.5,80.83,7.5h248.222c21.609,0,39.126,17.518,39.126,39.126v418.747
	C368.178,486.982,350.661,504.5,329.052,504.5z"/>
<g>
	<path style="fill:#FFEB99;" d="M122.972,465.373V46.626c0-21.609,17.517-39.126,39.126-39.126H80.83
		c-21.609,0-39.126,17.517-39.126,39.126v418.747c0,21.609,17.517,39.127,39.126,39.127h81.268
		C140.49,504.5,122.972,486.982,122.972,465.373z"/>
	<path style="fill:#FFEB99;" d="M204.941,454.058L204.941,454.058c-10.404,0-18.916-8.512-18.916-18.916V53.703
		c0-10.404,8.512-18.916,18.916-18.916l0,0c10.404,0,18.916,8.512,18.916,18.916v381.439
		C223.857,445.545,215.345,454.058,204.941,454.058z"/>
</g>
<path style="fill:#FFE477;" d="M204.941,435.142V53.703c0-6.961,3.82-13.059,9.458-16.344c-2.789-1.625-6.015-2.572-9.458-2.572
	c-10.404,0-18.916,8.512-18.916,18.916v381.439c0,10.404,8.512,18.916,18.916,18.916c3.443,0,6.669-0.948,9.458-2.572
	C208.761,448.201,204.941,442.102,204.941,435.142z"/>
<circle style="fill:#FF3F62;" cx="113.86" cy="82.58" r="38.821"/>
<path style="fill:#FF0C38;" d="M113.865,82.579c0-14.367,7.81-26.902,19.411-33.615c-5.711-3.305-12.337-5.207-19.411-5.207
	c-21.44,0-38.821,17.381-38.821,38.821s17.381,38.821,38.821,38.821c7.073,0,13.699-1.901,19.411-5.207
	C121.675,109.481,113.865,96.946,113.865,82.579z"/>
<circle style="fill:#FFE477;" cx="295.14" cy="82.58" r="38.821"/>
<circle style="fill:#A4E276;" cx="114.3" cy="190.94" r="38.821"/>
<circle style="fill:#9BC9FF;" cx="295.57" cy="190.94" r="38.821"/>
<circle style="fill:#00EED1;" cx="114.73" cy="299.3" r="38.821"/>
<circle style="fill:#B87FD9;" cx="296.01" cy="299.3" r="38.821"/>
<circle style="fill:#3535AA;" cx="115.17" cy="407.65" r="38.821"/>
<circle style="fill:#FFFFFF;" cx="296.44" cy="407.65" r="38.821"/>
<path style="fill:#FFD422;" d="M295.139,82.579c0-14.367,7.81-26.902,19.411-33.615c-5.711-3.305-12.337-5.207-19.411-5.207
	c-21.441,0-38.821,17.381-38.821,38.821s17.381,38.821,38.821,38.821c7.073,0,13.699-1.901,19.411-5.207
	C302.949,109.481,295.139,96.946,295.139,82.579z"/>
<path style="fill:#7ED63E;" d="M114.299,190.937c0-14.367,7.81-26.902,19.411-33.615c-5.711-3.305-12.337-5.207-19.411-5.207
	c-21.44,0-38.821,17.381-38.821,38.821s17.381,38.821,38.821,38.821c7.073,0,13.699-1.901,19.411-5.207
	C122.11,217.838,114.299,205.304,114.299,190.937z"/>
<path style="fill:#57A4FF;" d="M295.139,190.937c0-14.367,7.81-26.902,19.411-33.615c-5.711-3.305-12.337-5.207-19.411-5.207
	c-21.441,0-38.821,17.381-38.821,38.821s17.381,38.821,38.821,38.821c7.073,0,13.699-1.901,19.411-5.207
	C302.949,217.838,295.139,205.304,295.139,190.937z"/>
<path style="fill:#00DDC2;" d="M114.734,299.295c0-14.367,7.81-26.902,19.411-33.615c-5.711-3.305-12.337-5.207-19.411-5.207
	c-21.44,0-38.821,17.381-38.821,38.821c0,21.44,17.381,38.821,38.821,38.821c7.073,0,13.699-1.901,19.411-5.207
	C122.544,326.196,114.734,313.662,114.734,299.295z"/>
<path style="fill:#A258CD;" d="M296.009,299.295c0-14.367,7.81-26.902,19.411-33.615c-5.711-3.305-12.337-5.207-19.411-5.207
	c-21.44,0-38.821,17.381-38.821,38.821c0,21.44,17.381,38.821,38.821,38.821c7.073,0,13.699-1.901,19.411-5.207
	C303.819,326.196,296.009,313.662,296.009,299.295z"/>
<path style="fill:#2A2A93;" d="M115.169,407.652c0-14.367,7.81-26.902,19.411-33.615c-5.711-3.305-12.337-5.207-19.411-5.207
	c-21.44,0-38.821,17.381-38.821,38.821c0,21.44,17.381,38.821,38.821,38.821c7.073,0,13.699-1.901,19.411-5.207
	C122.979,434.554,115.169,422.019,115.169,407.652z"/>
<path style="fill:#DDFFFB;" d="M296.444,407.652c0-14.367,7.81-26.902,19.411-33.615c-5.711-3.305-12.337-5.207-19.411-5.207
	c-21.44,0-38.821,17.381-38.821,38.821c0,21.441,17.381,38.821,38.821,38.821c7.073,0,13.699-1.901,19.411-5.207
	C304.254,434.554,296.444,422.019,296.444,407.652z"/>
<path style="fill:#806749;" d="M430.317,163.373c0,0-33.414-26.155-7.259-56.047c10.848-12.398,15.22-22.707,16.622-30.527
	c1.052-5.867,8.496-7.794,12.29-3.197c14.203,17.209,30.499,49.254,4.715,89.771L430.317,163.373L430.317,163.373z"/>
<path style="fill:#6A563D;" d="M451.667,120.826c7.627-8.717,12.045-16.396,14.488-22.909c-3.594-9.858-9.026-18.065-14.184-24.315
	c-3.794-4.597-11.239-2.67-12.29,3.197c-1.402,7.82-5.774,18.129-16.622,30.527c-26.155,29.892,7.259,56.047,7.259,56.047h16.993
	C441.001,152.916,437.121,137.45,451.667,120.826z"/>
<path style="fill:#FF3F62;" d="M456.686,163.373h-26.369c0,0-9.911,162.824,4.85,270.306c1.332,9.701,15.338,9.701,16.67,0
	C466.597,326.197,456.686,163.373,456.686,163.373z"/>
<path style="fill:#FF0C38;" d="M451.607,433.679c-14.761-107.482-4.85-270.306-4.85-270.306h-16.441c0,0-9.911,162.824,4.85,270.306
	c1.303,9.485,14.715,9.69,16.555,0.626C451.68,434.099,451.637,433.894,451.607,433.679z"/>
<path style="fill:#E0E0E2;" d="M459.14,224.09c-0.964-36.235-2.453-60.718-2.453-60.718h-26.369c0,0-1.489,24.483-2.453,60.718
	H459.14z"/>
<path style="fill:#D8D7DA;" d="M430.317,163.373c0,0-1.489,24.483-2.453,60.718h16.44c0.964-36.238,2.454-60.718,2.454-60.718
	H430.317z"/>
<path d="M329.052,0H80.83C55.12,0,34.203,20.917,34.203,46.626v418.747C34.203,491.083,55.12,512,80.83,512h248.222
	c25.71,0,46.626-20.917,46.626-46.626V46.626C375.678,20.917,354.762,0,329.052,0z M360.678,465.374
	c0,17.439-14.188,31.626-31.626,31.626H80.83c-17.439,0-31.627-14.188-31.627-31.626V46.626C49.203,29.188,63.391,15,80.83,15
	h248.222c17.438,0,31.626,14.188,31.626,31.626V465.374z"/>
<path d="M204.941,27.287c-14.565,0-26.416,11.85-26.416,26.416v172.629c0,4.142,3.357,7.5,7.5,7.5s7.5-3.358,7.5-7.5V53.703
	c0-6.295,5.121-11.416,11.416-11.416s11.416,5.121,11.416,11.416v381.438c0,6.295-5.121,11.416-11.416,11.416
	s-11.416-5.121-11.416-11.416V260.473c0-4.142-3.357-7.5-7.5-7.5s-7.5,3.358-7.5,7.5v174.669c0,14.566,11.851,26.416,26.416,26.416
	s26.416-11.85,26.416-26.416V53.703C231.357,39.137,219.506,27.287,204.941,27.287z"/>
<path d="M113.865,128.9c25.542,0,46.321-20.78,46.321-46.321s-20.779-46.321-46.321-46.321s-46.321,20.78-46.321,46.321
	S88.323,128.9,113.865,128.9z M113.865,51.258c17.271,0,31.321,14.051,31.321,31.321S131.135,113.9,113.865,113.9
	S82.543,99.85,82.543,82.579S96.594,51.258,113.865,51.258z"/>
<path d="M295.139,128.9c9.799,0,19.167-3.024,27.091-8.744c3.358-2.425,4.116-7.113,1.691-10.471
	c-2.426-3.358-7.113-4.113-10.471-1.691c-5.353,3.864-11.685,5.906-18.312,5.906c-17.271,0-31.321-14.051-31.321-31.321
	s14.051-31.321,31.321-31.321s31.321,14.051,31.321,31.321c0,2.078-0.204,4.153-0.605,6.167c-0.81,4.063,1.826,8.012,5.889,8.822
	c4.06,0.814,8.012-1.826,8.822-5.888c0.594-2.978,0.895-6.04,0.895-9.101c0-25.542-20.779-46.321-46.321-46.321
	s-46.321,20.78-46.321,46.321S269.597,128.9,295.139,128.9z"/>
<path d="M114.299,237.258c25.542,0,46.321-20.78,46.321-46.321s-20.779-46.321-46.321-46.321s-46.321,20.78-46.321,46.321
	S88.757,237.258,114.299,237.258z M114.299,159.616c17.271,0,31.321,14.051,31.321,31.321s-14.051,31.321-31.321,31.321
	s-31.321-14.051-31.321-31.321S97.029,159.616,114.299,159.616z"/>
<path d="M295.574,237.258c25.542,0,46.321-20.78,46.321-46.321s-20.779-46.321-46.321-46.321s-46.321,20.78-46.321,46.321
	S270.032,237.258,295.574,237.258z M295.574,159.616c17.271,0,31.321,14.051,31.321,31.321s-14.051,31.321-31.321,31.321
	s-31.321-14.051-31.321-31.321S278.303,159.616,295.574,159.616z"/>
<path d="M114.735,345.616c25.542,0,46.321-20.78,46.321-46.321c0-25.542-20.779-46.322-46.321-46.322s-46.322,20.78-46.322,46.322
	C68.412,324.836,89.193,345.616,114.735,345.616z M114.735,267.973c17.271,0,31.321,14.051,31.321,31.322
	s-14.051,31.321-31.321,31.321c-17.271,0-31.322-14.051-31.322-31.321C83.412,282.024,97.463,267.973,114.735,267.973z"/>
<path d="M296.009,345.616c25.542,0,46.321-20.78,46.321-46.321c0-25.542-20.779-46.322-46.321-46.322s-46.321,20.78-46.321,46.322
	C249.688,324.836,270.467,345.616,296.009,345.616z M296.009,267.973c17.271,0,31.321,14.051,31.321,31.322
	s-14.051,31.321-31.321,31.321s-31.321-14.051-31.321-31.321C264.688,282.024,278.739,267.973,296.009,267.973z"/>
<path d="M115.169,361.331c-25.542,0-46.321,20.78-46.321,46.321s20.779,46.321,46.321,46.321s46.321-20.78,46.321-46.321
	S140.711,361.331,115.169,361.331z M115.169,438.974c-17.271,0-31.321-14.051-31.321-31.321s14.051-31.321,31.321-31.321
	s31.321,14.051,31.321,31.321S132.44,438.974,115.169,438.974z"/>
<path d="M296.444,361.331c-25.542,0-46.321,20.78-46.321,46.321s20.779,46.321,46.321,46.321s46.321-20.78,46.321-46.321
	S321.986,361.331,296.444,361.331z M296.444,438.974c-17.271,0-31.321-14.051-31.321-31.321s14.051-31.321,31.321-31.321
	s31.321,14.051,31.321,31.321S313.714,438.974,296.444,438.974z"/>
<path d="M451.823,231.59c0.282,11.957,0.497,24.993,0.581,38.688c0.025,4.126,3.378,7.454,7.499,7.454c0.016,0,0.031,0,0.047,0
	c4.142-0.025,7.479-3.404,7.454-7.546c-0.317-51.94-2.519-94.536-3.094-104.872c26.921-44.311,7.562-79.382-6.554-96.486
	c-3.642-4.413-9.344-6.25-14.875-4.803c-5.521,1.447-9.576,5.834-10.583,11.451c-1.479,8.261-6.487,17.315-14.884,26.911
	c-8.827,10.089-12.76,20.979-11.688,32.366c1.433,15.221,11.654,26.799,16.899,31.814c-1.339,24.779-8.358,170.062,5.11,268.133
	c1.113,8.099,7.597,13.755,15.767,13.754s14.652-5.657,15.765-13.755c4.76-34.658,7.47-78.519,8.056-130.364
	c0.046-4.142-3.273-7.537-7.415-7.584c-4.132-0.096-7.538,3.272-7.585,7.415c-0.578,51.221-8.025,129.288-8.821,129.288
	c-0.795,0-9.617-144.906-8.293-201.864L451.823,231.59L451.823,231.59z M435.604,216.59c0.616-20.843,1.369-37.035,1.815-45.718
	h12.166c0.45,8.692,1.212,24.907,1.835,45.718H435.604z M420.653,133.265c-0.653-7.195,1.98-14.064,8.05-21.001
	c9.882-11.293,15.984-22.412,18.154-33.067c13.584,16.86,24.914,43.426,5.615,76.675h-19.323
	C429.517,152.436,421.611,143.827,420.653,133.265z"/>
<g>
</g>
<g>
</g>
<g>
</g>
<g>
</g>
<g>
</g>
<g>
</g>
<g>
</g>
<g>
</g>
<g>
</g>
<g>
</g>
<g>
</g>
<g>
</g>
<g>
</g>
<g>
</g>
<g>
</g>
</svg>
